<svg xmlns="http://www.w3.org/2000/svg" width="700" height="1050">
<title>7.13 Полиция</title>
<defs><style>.a{fill:#fff}</style></defs><rect class="a" x="1" y="1" width="698" height="1048" rx="44"/><path d="M655 2a43.049 43.049 0 0 1 43 43v960a43.049 43.049 0 0 1-43 43H45a43.049 43.049 0 0 1-43-43V45A43.049 43.049 0 0 1 45 2h610m0-2H45A45 45 0 0 0 0 45v960a45 45 0 0 0 45 45h610a45 45 0 0 0 45-45V45a45 45 0 0 0-45-45z"/><rect x="20" y="20" width="660" height="1010" rx="25" style="fill:#0d69e1"/><rect class="a" x="65" y="173" width="570" height="570" rx="45"/><path class="a" d="m91.778 856.64 6.445 8.4 14.649-9.18v84.765h19.14V831.25h-16.406zM188.776 829.883q-16.663.428-26.66 15.723-9.998 15.295-10.254 40.332.256 25.036 10.254 40.332t26.66 15.722q16.662-.427 26.66-15.722 9.997-15.296 10.254-40.332-.257-23.883-10.254-39.673-9.998-15.79-26.66-16.382zm0 16.992q8.032-.122 12.841 9.278 4.81 9.4 4.932 29.785-.122 20.385-4.932 29.785-4.81 9.4-12.841 9.277-8.033.122-12.842-9.277t-4.932-29.785q.122-20.386 4.932-29.785 4.81-9.4 12.842-9.278zM274.18 829.883q-16.663.428-26.66 15.723-9.998 15.295-10.254 40.332.256 25.036 10.254 40.332t26.66 15.722q16.662-.427 26.66-15.722 9.998-15.296 10.254-40.332-.256-23.883-10.254-39.673-9.998-15.79-26.66-16.382zm0 16.992q8.032-.122 12.842 9.278 4.81 9.4 4.931 29.785-.122 20.385-4.931 29.785-4.81 9.4-12.842 9.277-8.032.122-12.842-9.277t-4.931-29.785q.122-20.386 4.931-29.785 4.81-9.4 12.842-9.278zM340.17 940.625h16.407l4.101-53.32 21.875 43.75 21.875-43.75 4.102 53.32h16.406l-6.836-76.562h-16.406l-19.14 38.28-19.141-38.28h-16.406zM525 864.063V831.25l94.792 54.687L525 940.625v-32.812h-43.75v-43.75z"/><path d="M88.678 394.732h66.257v107.52H138.94V410.86h-34.27v91.393H88.678zM234.902 464.62c0 24.193-12.566 40.32-29.7 40.32S175.5 488.814 175.5 464.62c0-24.191 12.566-40.32 29.701-40.32s29.701 16.129 29.701 40.32zm-45.693 0c0 16.129 6.854 26.881 15.992 26.881s15.993-10.752 15.993-26.88-6.854-26.88-15.993-26.88-15.993 10.752-15.993 26.88zM259.874 479.405c2.774-5.952 3.59-37.633 3.59-52.417h44.552v75.265h-13.708v-60.48H276.03c-1.142 24.192 3.427 55.104-25.132 63.168l-2.61-15.36c3.753-.768 8.812-4.032 11.586-10.176zM330.866 426.988h13.708v51.073l26.275-51.073h14.85v75.265h-13.708V451.18l-26.275 51.072h-14.85zM407.406 426.988h13.708v60.48h23.99v-60.48h13.709v60.48h12.565v30.913H457.67v-16.128h-50.264zM483.947 426.988h13.708v51.073l26.275-51.073h14.85v75.265h-13.708V451.18l-26.274 51.072h-14.85zM575.338 468.077c-6.854-2.112-13.708-9.409-13.708-18.24 0-10.753 5.712-22.849 21.705-22.849h27.416v75.265h-13.708V472.3c-1.469-.576-2.285-.576-4.57-.576-15.992 0-19.583 24.384-22.847 30.528h-15.992c6.853-9.408 10.28-32.256 21.704-34.176zm9.139-8.832h12.566v-17.473h-12.566c-4.57 0-7.997 4.033-7.997 8.449 0 4.224 3.59 9.024 7.997 9.024z"/></svg>