<?xml version="1.0" encoding="UTF-8" standalone="no"?>
<svg xmlns="http://www.w3.org/2000/svg" width="700" height="700" version="1.1">
  <title>4.1.6 Движение направо или налево</title>
  <circle style="fill:#ffffff;" cx="350" cy="350" r="350"/>
  <circle style="fill:none;stroke:#000000;stroke-width:2;" cx="350" cy="350" r="349"/>
  <clipPath id="clipPath">
    <circle transform="scale(0.885714285)" cx="350" cy="350" r="330"/>
  </clipPath>
  <path style="fill:#0d69e1;" clip-path="url(#clipPath)" transform="scale(1.12903226)" d="m 0 0 v 620 h 280 v -280 a 40 40 0 0 0 -40 -40 h -40 v 50 l -138.67 -80 l 138.67 -80 v 50 h 40 a 100 100 0 0 1 70 28.59 a 100 100 0 0 1 70 -28.59 h 40 v -50 l 138.67 80 l -138.67 80 v -50 h -40  a 40 40 0 0 0 -40 40 v 280 h 280 v -620 z"/>
</svg>
