<?xml version="1.0" encoding="UTF-8" standalone="no"?>
<svg xmlns="http://www.w3.org/2000/svg" width="700" height="700" version="1.1">
  <title>4.3 Круговое движение</title>
  <circle style="fill:#ffffff;" cx="350" cy="350" r="350"/>
  <circle style="fill:none;stroke:#000000;stroke-width:2;" cx="350" cy="350" r="349"/>
  <circle style="fill:#0d69e1;" cx="350" cy="350" r="330"/>
  <path style="fill:#ffffff;" transform="scale(1.12903226) rotate(270 310 310)" d="m 50 240 l 92.31 160 l 92.31 -160 h -61.79 a 154 154 0 0 1 110.43 -81.66 l -9.72 -55.15 a 210 210 0 0 0 -161.52 136.81 z"/>
  <path style="fill:#ffffff;" transform="scale(1.12903226) rotate(30 310 310)" d="m 50 240 l 92.31 160 l 92.31 -160 h -61.79 a 154 154 0 0 1 110.43 -81.66 l -9.72 -55.15 a 210 210 0 0 0 -161.52 136.81 z"/>
  <path style="fill:#ffffff;" transform="scale(1.12903226) rotate(150 310 310)" d="m 50 240 l 92.31 160 l 92.31 -160 h -61.79 a 154 154 0 0 1 110.43 -81.66 l -9.72 -55.15 a 210 210 0 0 0 -161.52 136.81 z"/>
</svg>
