<?xml version="1.0" encoding="UTF-8" standalone="no"?>
<svg xmlns="http://www.w3.org/2000/svg" width="700" height="700" version="1.1">
  <title>3.18.1 Поворот направо запрещен</title>
  <circle style="fill:#ffffff;" cx="350" cy="350" r="350"/>
  <circle style="fill:none;stroke:#000000;stroke-width:2;" cx="350" cy="350" r="349"/>
  <path style="fill:#ff0000;" d="m 350 690 a 340 340 0 0 0 340 -340 a 340 340 0 0 0 -340 -340 a 340 340 0 0 0 -340 340 a 340 340 0 0 0 340 340 z m 182.98 -125.08 a 282.26 282.26 0 0 1 -182.98 67.34 a 282.26 282.26 0 0 1 -282.26 -282.26 a 282.26 282.26 0 0 1 67.34 -182.98 z m -365.96 -429.84 a 282.26 282.26 0 0 1 182.98 -67.34 a 282.26 282.26 0 0 1 282.26 282.26 a 282.26 282.26 0 0 1 -67.34 182.98 z"/>
  <clipPath id="clipPath">
    <rect transform="rotate(45 310 310)" x="60" y="60" width="500" height="220"/>
    <rect transform="rotate(45 310 310)" x="60" y="340" width="500" height="220"/>
  </clipPath>
  <path style="fill:#000000;" clip-path="url(#clipPath)" transform="scale(1.12903226)" d="m 220 480 v -220 a 40 40 0 0 1 40 -40 h 80 v 50 l 138.67 -80 l -138.67 -80 v 50 h -80 a 100 100 0 0 0 -100 100 v 220 z"/>
</svg>
