<?xml version="1.0" encoding="UTF-8" standalone="no"?>
<svg xmlns="http://www.w3.org/2000/svg" width="700" height="700" version="1.1">
  <title>3.25 Конец ограничения максимальной скорости</title>
  <circle style="fill:#ffffff;" cx="350" cy="350" r="350"/>
  <circle style="fill:none;stroke:#000000;stroke-width:2;" cx="350" cy="350" r="349"/>
  <circle style="fill:none;stroke:#000000;stroke-width:10;" cx="350" cy="350" r="335"/>
  <path style="fill:#7f7f7f;" transform="scale(1.12903226)" d="m 274.55 235.75 l 11 -35.75 h -126.50 v 107.25 l 24.75 13.75 c 5.50 -2.75 16.50 -16.50 33 -16.50 c 24.75 0 38.50 22 38.50 41.25 c 0 27.50 -27.50 41.25 -49.50 41.25 c -18.07 0 -38.89 -1.96 -52.25 -11 l 5.50 35.75 c 0 0 27.50 11 52.25 11 c 52.25 0 85.25 -35.75 85.25 -79.75 c 0 -44 -35.75 -68.75 -66 -68.75 c -12.57 0 -27.50 2.75 -35.75 13.75 v -52.25 z"/>
  <path style="fill:#7f7f7f;" transform="scale(1.12903226)" d="m 400.09 197.25 c -44 0 -74.25 46.75 -74.25 112.75 c 0 66 30.25 112.75 74.25 112.75 c 44 0 74.25 -46.75 74.25 -112.75 c 0 -62.46 -30.25 -112.75 -74.25 -112.75 z m 0 34.18 c 21.21 0 35.75 23.57 35.75 78.57 c 0 55 -14.54 78.57 -35.75 78.57 c -21.21 0 -35.75 -23.57 -35.75 -78.57 c 0 -55 14.54 -78.57 35.75 -78.57 z"/>
  <path style="stroke:#000000;stroke-width:10;" transform="rotate(45 350 350)" d="m 300 18.75 v 662.49"/>
  <path style="stroke:#000000;stroke-width:10;" transform="rotate(45 350 350)" d="m 325 15.93 v 668.12"/>
  <path style="stroke:#000000;stroke-width:10;" transform="rotate(45 350 350)" d="m 350 15 v 670"/>
  <path style="stroke:#000000;stroke-width:10;" transform="rotate(45 350 350)" d="m 375 15.93 v 668.12"/>
  <path style="stroke:#000000;stroke-width:10;" transform="rotate(45 350 350)" d="m 400 18.75 v 662.49"/>
</svg>
