<?xml version="1.0" encoding="UTF-8" standalone="no"?>
<svg xmlns="http://www.w3.org/2000/svg" width="700" height="700" version="1.1">
  <title>3.35 Движение на средствах индивидуальной мобильности запрещено</title>
  <circle style="fill:#ffffff;" cx="350" cy="350" r="350"/>
  <circle style="fill:none;stroke:#000000;stroke-width:2;" cx="350" cy="350" r="349"/>
  <path style="fill:#ff0000;" d="m 350 690 a 340 340 0 0 0 340 -340 a 340 340 0 0 0 -340 -340 a 340 340 0 0 0 -340 340 a 340 340 0 0 0 340 340 z m 182.98 -125.08 a 282.26 282.26 0 0 1 -182.98 67.34 a 282.26 282.26 0 0 1 -282.26 -282.26 a 282.26 282.26 0 0 1 67.34 -182.98 z m -365.96 -429.84 a 282.26 282.26 0 0 1 182.98 -67.34 a 282.26 282.26 0 0 1 282.26 282.26 a 282.26 282.26 0 0 1 -67.34 182.98 z"/>
  <clipPath id="clipPath">
    <rect transform="scale(0.885714285) rotate(45 350 350)" x="67.74" y="67.74" width="564.52" height="249.68"/>
    <rect transform="scale(0.885714285) rotate(45 350 350)" x="67.74" y="382.58" width="564.52" height="249.68"/>
  </clipPath>
  <path style="fill:#000000;" clip-path="url(#clipPath)" transform="scale(1.12903226)" d="m 348 438 a 24 24 0 0 0 18.11 -8.25 l 48.02 -55.24 l 2.03 16.55 a 41 41 0 0 0 -28.16 38.94 a 41 41 0 0 0 41 41 a 41 41 0 0 0 41 -41 a 41 41 0 0 0 -37.96 -40.89 l -19.12 -155.69 a 13 13 0 0 0 -12.90 -11.42 h -12.04 a 22 22 0 0 1 0.02 1 a 22 22 0 0 1 -5.91 15 h 10.86 a 5 5 0 0 1 4.96 4.39 l 13.59 110.75 l -57.46 66.11 a 8 8 0 0 1 -6.04 2.75 h -114.79 a 41 41 0 0 0 -40.21 -33 a 41 41 0 0 0 -41 41 a 41 41 0 0 0 41 41 a 41 41 0 0 0 40.21 -33 z m -155 -16 a 8 8 0 0 0 -8 8 a 8 8 0 0 0 8 8 h 26.83 a 28 28 0 0 1 -26.83 20 a 28 28 0 0 1 -28 -28 a 28 28 0 0 1 28 -28 a 28 28 0 0 1 26.83 20 z m 228.06 8.97 a 8 8 0 0 0 7.94 7.03 a 8 8 0 0 0 8 -8 a 8 8 0 0 0 -0.06 -0.97 l -3.27 -26.64 a 28 28 0 0 1 23.33 27.61 a 28 28 0 0 1 -28 28 a 28 28 0 0 1 -28 -28 a 28 28 0 0 1 16.79 -25.66 z"/>
  <path style="fill:#000000;" clip-path="url(#clipPath)" transform="scale(1.12903226)" d="m 235.24 393.22 a 16 16 0 0 0 -0.24 2.78 a 16 16 0 0 0 16 16 a 16 16 0 0 0 15.76 -13.22 l 20.71 -117.45 l 16.62 26.60 l 15.75 89.35 a 16 16 0 0 0 15.76 13.22 a 16 16 0 0 0 16 -16 a 16 16 0 0 0 -0.24 -2.78 l -16.84 -95.48 l -27.02 -43.24 v -53.81 l 51.62 36.14 a 12 12 0 0 0 6.88 2.17 a 12 12 0 0 0 12 -12 a 12 12 0 0 0 -4.61 -9.46 l -86.08 -67.24 a 20 20 0 0 0 -12.31 -4.24 a 20 20 0 0 0 -20 20 v 116.62 z"/>
  <path style="fill:#000000;" transform="scale(1.12903226)" d="m 256 104 c 0 20.98 32.21 36 41 36 c 11.78 0 19 -10.58 19 -26 c 0 -30.62 -37 -31.50 -37 -31.50 c -12.51 0 -23 9.56 -23 21.50 z"/>
</svg>
