<svg xmlns="http://www.w3.org/2000/svg" width="630" height="350">
<title>6.13 Километровый знак</title>
<defs><style>.a{fill:#fff}</style></defs><rect class="a" x="1" y="1" width="628" height="348" rx="44"/><path d="M585 2a43.049 43.049 0 0 1 43 43v260a43.049 43.049 0 0 1-43 43H45a43.049 43.049 0 0 1-43-43V45A43.049 43.049 0 0 1 45 2h540m0-2H45A45 45 0 0 0 0 45v260a45 45 0 0 0 45 45h540a45 45 0 0 0 45-45V45a45 45 0 0 0-45-45z"/><rect x="10" y="10" width="610" height="330" rx="35" style="fill:#0d69e1"/><path class="a" d="M142.395 110.041h19.487V239.96h-22.735V139.273l-17.4 10.904-7.656-9.977zM244.705 108.417c17.863 0 37.35 14.616 37.35 34.104 0 16.239-3.015 21.343-11.367 31.55-10.208 12.993-25.52 27.145-42.224 44.776h53.591c0 4.872-1.624 12.992-4.872 21.112h-77.95V220.47a494.272 494.272 0 0 0 47.327-49.183c7.888-9.28 13.688-15.776 13.688-28.767 0-8.12-7.424-16.936-18.791-16.936-9.745 0-17.865 8.816-25.984 16.936l-12.992-14.616c9.744-11.136 22.735-19.488 42.224-19.488zM402.229 175c0 38.975-17.863 66.583-43.847 66.583S314.535 213.975 314.535 175c0-38.975 17.864-66.583 43.847-66.583S402.23 138.113 402.23 175zm-64.958 0c0 32.48 8.583 46.4 21.111 46.4s21.112-13.92 21.112-46.4-8.584-46.4-21.112-46.4c-12.528 0-21.111 13.92-21.111 46.4zM455.823 131.153v30.855c4.87-6.496 13.687-8.12 21.111-8.12 17.863 0 38.975 14.616 38.975 40.6 0 25.983-19.488 47.095-50.343 47.095-14.615 0-30.856-6.496-30.856-6.496l-3.248-21.112c7.89 5.336 20.184 6.496 30.856 6.496 12.992 0 29.231-8.12 29.231-24.36 0-11.367-8.12-24.36-22.735-24.36-9.744 0-16.24 8.12-19.487 9.745l-14.617-8.12V110.04h74.703l-6.496 21.112z"/></svg>