<svg xmlns="http://www.w3.org/2000/svg" width="700" height="700">
<title>5.19.3 Диагональный пешеходный переход</title>
<defs><style>.a{fill:#fff}</style></defs><rect class="a" x="1" y="1" width="698" height="698" rx="44"/><path d="M655 2a43.049 43.049 0 0 1 43 43v610a43.049 43.049 0 0 1-43 43H45a43.049 43.049 0 0 1-43-43V45A43.049 43.049 0 0 1 45 2h610m0-2H45A45 45 0 0 0 0 45v610a45 45 0 0 0 45 45h610a45 45 0 0 0 45-45V45a45 45 0 0 0-45-45z"/><rect x="20" y="20" width="660" height="660" rx="25" style="fill:#0d69e1"/><path class="a" d="m173.039 91.383-25.979 25.979 54.448 54.447-29.699 29.699-54.447-54.448-25.979 25.979L61.5 61.5l111.539 29.883zM608.617 526.961l-25.979 25.979-54.447-54.448-29.699 29.699 54.448 54.447-25.979 25.979L638.5 638.5l-29.883-111.539zM526.961 91.383l25.979 25.979-54.448 54.447 29.699 29.699 54.447-54.448 25.979 25.979L638.5 61.5 526.961 91.383zM91.383 526.961l25.979 25.979 54.447-54.448 29.699 29.699-54.448 54.447 25.979 25.979L61.5 638.5l29.883-111.539zM245.605 512.54a18 18 0 0 0 21.896-12.924l21.494-83.012a45 45 0 0 1 11.384-20.176L379 316l-9-80 28.476 26.85a25 25 0 0 1 7.652 15.045l5.409 42.672a19 19 0 0 0 21.812 16.378 18.755 18.755 0 0 0 15.58-21.575l-10.062-61.045a30 30 0 0 0-10.817-18.512l-50.471-40.53a45 45 0 0 0-14.625-7.824l-6.68-2.11a10 10 0 0 0-8.126.944L318.1 204.178a15 15 0 0 0-7.269 14.212L320 322l-52.203 50.491a45 45 0 0 0-12.073 20.302L229.97 485.51a21.864 21.864 0 0 0 15.635 27.03z"/><path class="a" d="m440.218 491.524-87.224-125.89 26.012-26.27 89.597 133.04a17 17 0 0 1-4.466 23.502 17.224 17.224 0 0 1-23.92-4.382zM305.23 297.9l-35.19 33.64a17.003 17.003 0 0 1-23.5-24.58l55.71-53.25zM302 153c0 6 3 28 20 28 20 0 44-22 44-37a27.591 27.591 0 0 0-27-28c-15 0-37 10-37 37z"/></svg>