<?xml version="1.0" encoding="UTF-8" standalone="no"?>
<svg
   width="600"
   height="900"
   version="1.1"
   id="svg5691"
   sodipodi:docname="5544.svg"
   inkscape:version="1.2.2 (732a01da63, 2022-12-09)"
   xmlns:inkscape="http://www.inkscape.org/namespaces/inkscape"
   xmlns:sodipodi="http://sodipodi.sourceforge.net/DTD/sodipodi-0.dtd"
   xmlns="http://www.w3.org/2000/svg"
   xmlns:svg="http://www.w3.org/2000/svg"
   xmlns:rdf="http://www.w3.org/1999/02/22-rdf-syntax-ns#"
   xmlns:cc="http://creativecommons.org/ns#"
   xmlns:dc="http://purl.org/dc/elements/1.1/">
  <defs
     id="defs5695" />
  <sodipodi:namedview
     id="namedview5693"
     pagecolor="#ffffff"
     bordercolor="#000000"
     borderopacity="0.25"
     inkscape:showpageshadow="2"
     inkscape:pageopacity="0.0"
     inkscape:pagecheckerboard="0"
     inkscape:deskcolor="#d1d1d1"
     showgrid="false"
     showguides="true"
     inkscape:zoom="0.31584102"
     inkscape:cx="1660.6456"
     inkscape:cy="140.89367"
     inkscape:window-width="1920"
     inkscape:window-height="991"
     inkscape:window-x="-9"
     inkscape:window-y="-9"
     inkscape:window-maximized="1"
     inkscape:current-layer="svg5691" />
  <rect
     ry="45"
     rx="45"
     height="900"
     width="600"
     style="marker:none"
     overflow="visible"
     color="#000000"
     fill="#ffffff"
     id="rect5675"
     x="-1.7148241e-05"
     y="0" />
  <rect
     style="marker:none"
     width="598"
     height="898"
     x="1"
     y="1"
     rx="44"
     ry="44"
     overflow="visible"
     color="#000"
     fill="none"
     stroke="#000"
     stroke-width="2"
     id="rect5677" />
  <path
     d="M45 20c-13.85 0-25 11.15-25 25v810c0 13.85 11.15 25 25 25h510c13.85 0 25-11.15 25-25V45c0-13.85-11.15-25-25-25zm0 10h510c8.31 0 15 6.69 15 15v810c0 8.31-6.69 15-15 15H45c-8.31 0-15-6.69-15-15V45c0-8.31 6.69-15 15-15z"
     style="marker:none"
     overflow="visible"
     color="#000"
     id="path5679" />
  <path
     d="M169.69 118.688h9.703c3.886.045 7.165 1.302 9.838 3.773 2.673 2.47 4.066 5.885 4.178 10.242-.135 3.841-1.752 6.94-4.852 9.3-3.1 2.357-6.873 3.57-11.32 3.638-8.063-.405-14.038-2.022-17.924-4.852-3.885-2.83-5.817-4.447-5.795-4.851l-9.703 11.859c.202.494 3.302 2.47 9.3 5.93 5.996 3.459 13.678 5.435 23.044 5.93 10.31-.405 18.26-3.37 23.853-8.895 5.593-5.526 8.423-11.186 8.49-16.98-.226-5.697-1.81-10.116-4.751-13.257-2.942-3.142-5.883-5.325-8.825-6.55-2.941-1.224-4.525-1.81-4.751-1.756.186.06 1.49-.42 3.913-1.438 2.422-1.018 4.845-2.934 7.267-5.75 2.422-2.815 3.727-6.887 3.913-12.218-.09-6.649-2.605-12.219-7.547-16.711-4.941-4.492-11.77-6.828-20.484-7.008-8.785.405-15.896 2.022-21.331 4.852-5.436 2.83-8.234 4.447-8.394 4.851l8.163 12.63c-.045-.347 1.662-1.733 5.12-4.159 3.46-2.426 8.94-3.812 16.442-4.158 5.772.292 9.59 1.864 11.455 4.716 1.864 2.853 2.718 5.234 2.56 7.143.046 1.864-.853 4.066-2.695 6.604-1.842 2.538-4.896 3.93-9.164 4.177h-9.703zm89.276-49.594c-11.84.328-20.658 4.755-26.452 13.284-5.795 8.529-8.683 19.195-8.664 31.997-.02 12.803 2.869 23.469 8.664 31.997 5.794 8.529 14.612 12.957 26.452 13.284 11.84-.327 20.658-4.755 26.453-13.284 5.794-8.528 8.682-19.194 8.663-31.997.02-12.802-2.869-23.468-8.663-31.997-5.795-8.529-14.613-12.957-26.453-13.284zm0 14.016c6.042.09 10.938 2.875 14.69 8.355 3.75 5.48 5.682 13.117 5.794 22.91-.112 9.793-2.044 17.43-5.795 22.91-3.75 5.48-8.647 8.266-14.689 8.356-6.042-.09-10.938-2.875-14.69-8.356-3.75-5.48-5.682-13.117-5.794-22.91.112-9.793 2.044-17.43 5.795-22.91 3.75-5.48 8.647-8.265 14.69-8.355zm54.874 74.39h15.094v-38.812h32.344V157.5h15.094V71.25h-15.094v34.5h-32.344v-34.5h-15.093zm108.782-30.187l10.78-36.656 10.782 36.656zm2.156-56.063l-28.031 86.25h16.171l5.391-17.25h30.187l5.391 17.25h16.172l-28.031-86.25z"
     style="line-height:125%;-inkscape-font-specification:'Russian Road Sign'"
     font-weight="400"
     font-family="Russian Road Sign"
     letter-spacing="-4.406"
     word-spacing="0"
     id="path5681" />
  <metadata
     id="metadata8967">
    <rdf:RDF>
      <cc:Work
         rdf:about="">
        <dc:title />
      </cc:Work>
    </rdf:RDF>
  </metadata>
  <g
     id="g10452"
     transform="matrix(1.0047077,0,0,1.0047077,-570.49678,-1.7001736)">
    <g
       id="path5924-4"
       style="fill:#127f15;fill-opacity:1"
       transform="matrix(13.234603,0,0,13.234603,-124.44511,-3057.1293)">
      <g
         id="path9017"
         style="fill:#127f15;fill-opacity:1">
        <path
           id="path9384"
           style="color:#000000;fill:#127f15;fill-opacity:1;stroke-linecap:round;stroke-linejoin:round;-inkscape-stroke:none;paint-order:stroke fill markers"
           d="m 74.869117,248.29681 c -4.041257,0 -7.726235,0.84383 -10.628949,2.40241 -2.902713,1.55858 -5.322223,4.09732 -5.322223,7.44719 0,3.34988 2.41951,5.88875 5.322223,7.44733 2.902714,1.55858 6.587692,2.40241 10.628949,2.40241 4.041257,0 7.728153,-0.84383 10.630867,-2.40241 2.902714,-1.55858 5.320305,-4.09745 5.320304,-7.44733 0,-3.34987 -2.41759,-5.88861 -5.320304,-7.44719 -2.902714,-1.55858 -6.58961,-2.40241 -10.630867,-2.40241 z m 1.47e-4,2.77372 a 13.17716,7.0753145 0 0 1 13.177164,7.07529 13.17716,7.0753145 0 0 1 -13.177164,7.07529 13.17716,7.0753145 0 0 1 -13.177163,-7.07529 13.17716,7.0753145 0 0 1 13.177163,-7.07529 z" />
      </g>
    </g>
    <path
       d="m 882.52038,276.27527 -78.4993,104.66565 v 24.15361 h 76.4865 v 32.20482 h 28.1792 v -32.20482 h 10.9266 l 9.2014,-24.15361 h -22.1408 V 276.27527 Z m -2.0128,42.26882 v 62.39683 h -46.2945 z"
       id="path9389"
       style="font-weight:bold;font-size:287.543px;font-family:'Russian Road Sign';-inkscape-font-specification:'Russian Road Sign Bold';stroke-width:148.236;stroke-linecap:round;stroke-linejoin:round;paint-order:stroke fill markers" />
  </g>
  <path
     d="m 224.38835,538.24547 h 151.22326 c 5.98076,0 12.35817,4.5419 14.30792,10.19608 l 7.24074,20.99036 14.99234,43.44007 c 0.0129,0.0388 -0.0129,0.0884 0,0.12826 l 3.51366,10.06675 a 15.388975,15.388975 0 0 1 15.42239,15.42346 v 61.6874 a 15.388975,15.388975 0 0 1 -15.42239,15.42346 H 184.33369 A 15.388975,15.388975 0 0 1 168.9113,700.17785 v -61.68848 a 15.388975,15.388975 0 0 1 15.42239,-15.42238 l 3.51366,-10.06675 c 0.0129,-0.0399 -0.0151,-0.0884 0,-0.12934 l 14.99234,-43.43899 7.24073,-20.99036 c 1.94976,-5.65418 8.32717,-10.19608 14.30793,-10.19608 z m 4.66908,15.42239 c -2.98985,0 -6.17908,2.27095 -7.15343,5.09804 l -22.149,64.30216 H 400.24388 L 378.05392,558.7659 c -0.97541,-2.82709 -4.12154,-5.09804 -7.11139,-5.09804 h -70.94255 z m 163.4758,84.05088 c -12.77637,0 -23.13305,10.35776 -23.13305,23.13304 0,12.77636 10.35776,23.13304 23.13305,23.13304 12.77636,0 23.13304,-10.35776 23.13304,-23.13304 0,-12.77637 -10.35776,-23.13304 -23.13304,-23.13304 z m -185.0665,0.77063 c -12.77636,0 -23.13304,10.35776 -23.13304,23.13305 0,12.77636 10.35776,23.13411 23.13304,23.13411 12.77636,0 23.13305,-10.35775 23.13305,-23.13411 0,-12.77529 -10.35776,-23.13305 -23.13305,-23.13305 z m -23.13304,84.82259 h 46.26609 v 30.8437 c 0,12.77636 -10.35776,23.13412 -23.13305,23.13412 -12.77636,0 -23.13304,-10.35776 -23.13304,-23.13412 z m 185.06649,0 h 46.26609 v 30.8437 c 0,12.77636 -10.35776,23.13412 -23.13304,23.13412 -12.77637,0 -23.13305,-10.35776 -23.13305,-23.13412 z"
     fill="#7f7f7f"
     id="path11512"
     style="stroke-width:1.07781;fill:#000000" />
</svg>
