<?xml version="1.0" encoding="UTF-8" standalone="no"?>
<svg
   width="600"
   height="900"
   version="1.1"
   id="svg5691"
   sodipodi:docname="5544.svg"
   inkscape:version="1.2.2 (732a01da63, 2022-12-09)"
   xmlns:inkscape="http://www.inkscape.org/namespaces/inkscape"
   xmlns:sodipodi="http://sodipodi.sourceforge.net/DTD/sodipodi-0.dtd"
   xmlns="http://www.w3.org/2000/svg"
   xmlns:svg="http://www.w3.org/2000/svg"
   xmlns:rdf="http://www.w3.org/1999/02/22-rdf-syntax-ns#"
   xmlns:cc="http://creativecommons.org/ns#"
   xmlns:dc="http://purl.org/dc/elements/1.1/">
  <defs
     id="defs5695" />
  <sodipodi:namedview
     id="namedview5693"
     pagecolor="#ffffff"
     bordercolor="#000000"
     borderopacity="0.25"
     inkscape:showpageshadow="2"
     inkscape:pageopacity="0.0"
     inkscape:pagecheckerboard="0"
     inkscape:deskcolor="#d1d1d1"
     showgrid="false"
     showguides="true"
     inkscape:zoom="0.44666666"
     inkscape:cx="677.23882"
     inkscape:cy="345.89553"
     inkscape:window-width="1920"
     inkscape:window-height="991"
     inkscape:window-x="-9"
     inkscape:window-y="-9"
     inkscape:window-maximized="1"
     inkscape:current-layer="svg5691" />
  <rect
     ry="45"
     rx="45"
     height="900"
     width="600"
     style="marker:none"
     overflow="visible"
     color="#000000"
     fill="#ffffff"
     id="rect5675"
     x="-1.7148241e-05"
     y="0" />
  <rect
     style="marker:none"
     width="598"
     height="898"
     x="1"
     y="1"
     rx="44"
     ry="44"
     overflow="visible"
     color="#000"
     fill="none"
     stroke="#000"
     stroke-width="2"
     id="rect5677" />
  <path
     d="M169.69 118.688h9.703c3.886.045 7.165 1.302 9.838 3.773 2.673 2.47 4.066 5.885 4.178 10.242-.135 3.841-1.752 6.94-4.852 9.3-3.1 2.357-6.873 3.57-11.32 3.638-8.063-.405-14.038-2.022-17.924-4.852-3.885-2.83-5.817-4.447-5.795-4.851l-9.703 11.859c.202.494 3.302 2.47 9.3 5.93 5.996 3.459 13.678 5.435 23.044 5.93 10.31-.405 18.26-3.37 23.853-8.895 5.593-5.526 8.423-11.186 8.49-16.98-.226-5.697-1.81-10.116-4.751-13.257-2.942-3.142-5.883-5.325-8.825-6.55-2.941-1.224-4.525-1.81-4.751-1.756.186.06 1.49-.42 3.913-1.438 2.422-1.018 4.845-2.934 7.267-5.75 2.422-2.815 3.727-6.887 3.913-12.218-.09-6.649-2.605-12.219-7.547-16.711-4.941-4.492-11.77-6.828-20.484-7.008-8.785.405-15.896 2.022-21.331 4.852-5.436 2.83-8.234 4.447-8.394 4.851l8.163 12.63c-.045-.347 1.662-1.733 5.12-4.159 3.46-2.426 8.94-3.812 16.442-4.158 5.772.292 9.59 1.864 11.455 4.716 1.864 2.853 2.718 5.234 2.56 7.143.046 1.864-.853 4.066-2.695 6.604-1.842 2.538-4.896 3.93-9.164 4.177h-9.703zm89.276-49.594c-11.84.328-20.658 4.755-26.452 13.284-5.795 8.529-8.683 19.195-8.664 31.997-.02 12.803 2.869 23.469 8.664 31.997 5.794 8.529 14.612 12.957 26.452 13.284 11.84-.327 20.658-4.755 26.453-13.284 5.794-8.528 8.682-19.194 8.663-31.997.02-12.802-2.869-23.468-8.663-31.997-5.795-8.529-14.613-12.957-26.453-13.284zm0 14.016c6.042.09 10.938 2.875 14.69 8.355 3.75 5.48 5.682 13.117 5.794 22.91-.112 9.793-2.044 17.43-5.795 22.91-3.75 5.48-8.647 8.266-14.689 8.356-6.042-.09-10.938-2.875-14.69-8.356-3.75-5.48-5.682-13.117-5.794-22.91.112-9.793 2.044-17.43 5.795-22.91 3.75-5.48 8.647-8.265 14.69-8.355zm54.874 74.39h15.094v-38.812h32.344V157.5h15.094V71.25h-15.094v34.5h-32.344v-34.5h-15.093zm108.782-30.187l10.78-36.656 10.782 36.656zm2.156-56.063l-28.031 86.25h16.171l5.391-17.25h30.187l5.391 17.25h16.172l-28.031-86.25z"
     style="line-height:125%;-inkscape-font-specification:'Russian Road Sign'"
     font-weight="400"
     font-family="Russian Road Sign"
     letter-spacing="-4.406"
     word-spacing="0"
     id="path5681" />
  <path
     d="m 262.28003,546.4874 a 18.855512,18.855512 0 0 0 -18.883,18.88299 V 697.4112 H 488.65201 V 565.37039 c 0,-10.45161 -8.4012,-18.88299 -18.8528,-18.88299 H 262.27865 Z m 75.29698,33.07685 c 8.0562,0.0385 14.41375,2.20852 19.06578,6.51972 4.31121,4.08582 6.48674,9.27933 6.48674,15.59565 0,7.4515 -4.40603,13.65513 -13.21947,18.60951 5.71162,4.31121 9.2862,7.31407 10.72373,9.01547 3.13892,3.74499 4.68914,8.52896 4.68914,14.31617 0,5.89991 -2.14392,10.83092 -6.45513,14.80268 -5.02997,4.61492 -12.17775,6.91414 -21.44471,6.91414 -8.66089,0 -15.54618,-2.32121 -20.65173,-6.97324 -4.57645,-4.12292 -6.88254,-9.03333 -6.88254,-14.74358 0,-5.78721 1.55847,-10.5863 4.65891,-14.40688 1.55297,-1.92815 5.12479,-4.93102 10.72235,-9.01546 -8.66226,-4.61493 -12.97622,-10.73335 -12.97622,-18.33602 0,-6.50598 2.12331,-11.79157 6.39741,-15.84028 4.61355,-4.34831 10.90513,-6.49498 18.88574,-6.45788 z m 0,12.54881 c -3.40416,0 -6.09918,0.76549 -8.10429,2.31709 -2.00375,1.55022 -3.01386,3.5251 -3.01386,5.90677 0,4.95576 3.70513,9.34118 11.11815,13.16176 7.45013,-3.74499 11.17725,-8.13591 11.17725,-13.12877 0,-2.38305 -0.99087,-4.34144 -3.01523,-5.90953 -2.02298,-1.57083 -4.75785,-2.34732 -8.16339,-2.34732 z m -177.76955,10.97523 a 18.885747,18.885747 0 0 0 -15.65337,8.31044 l -29.59436,43.86243 a 18.861009,18.861009 0 0 0 -3.21176,10.55194 v 58.01094 c 0,10.41863 8.44513,18.8665 18.86376,18.8665 h 17.0373 c 0.98676,-20.99943 18.31404,-37.73164 39.55947,-37.73164 21.24544,0 38.5686,16.73084 39.55672,37.73164 h 147.2654 c 0.70777,-15.0418 9.78508,-27.87784 22.69808,-33.95778 H 232.0851 v -86.77934 c 0,-10.41863 -8.44788,-18.86513 -18.86651,-18.86513 z m 224.49329,0.69265 h 47.97436 v 11.57443 h -17.36438 v 48.67251 h -12.85116 v -48.67251 h -17.75882 z m -223.49141,10.62341 h 42.976 a 9.4346276,9.4346276 0 0 1 9.43325,9.436 v 26.41008 a 9.431879,9.431879 0 0 1 -9.43325,9.43188 h -60.81041 a 9.431879,9.431879 0 0 1 -9.43187,-9.43188 c 0,-1.88005 0.57033,-3.71888 1.62168,-5.27734 L 152.96891,618.563 a 9.4689853,9.4689853 0 0 1 7.84043,-4.15728 z m 177.00955,12.46497 c -8.47261,4.84032 -12.70273,10.30457 -12.70273,16.35565 0,6.01397 4.13942,9.01684 12.46085,9.01684 8.35855,0 12.54744,-3.07158 12.54744,-9.19825 0,-5.97687 -4.09819,-11.3724 -12.30556,-16.17561 z m 92.22984,81.86344 c 12.91298,6.07994 21.99168,18.91598 22.69948,33.95916 h 35.9038 v -33.95916 h -58.6019 z m -243.24023,3.77247 c -17.71208,0 -32.07086,14.3574 -32.07086,32.07086 0,17.71209 14.35878,32.07087 32.07086,32.07087 17.71209,0 32.07087,-14.35878 32.07087,-32.07087 0,-17.71346 -14.35878,-32.07086 -32.07087,-32.07086 z m 226.38159,0 c -17.71209,0 -32.07086,14.3574 -32.07086,32.07086 0,17.71209 14.35877,32.07087 32.07086,32.07087 17.71209,0 32.07082,-14.35878 32.07082,-32.07087 0,-17.71346 -14.35873,-32.07086 -32.07082,-32.07086 z M 186.8085,727.59789 c 9.37691,0 16.97684,7.59992 16.97684,16.9782 0,9.37691 -7.59993,16.97959 -16.97684,16.97959 -9.3769,0 -16.98095,-7.60268 -16.98095,-16.97959 0,-9.37828 7.60405,-16.9782 16.98095,-16.9782 z m 226.38159,0 c 9.37691,0 16.97821,7.59992 16.97821,16.9782 0,9.37691 -7.59993,16.97959 -16.97821,16.97959 -9.37691,0 -16.97958,-7.60268 -16.97958,-16.97959 0,-9.37828 7.60267,-16.9782 16.97958,-16.9782 z"
     style="stroke-width:1.37431;marker:none;fill:#7f7f7f;fill-opacity:1"
     overflow="visible"
     color="#000000"
     id="path8434" />
  <metadata
     id="metadata8967">
    <rdf:RDF>
      <cc:Work
         rdf:about="">
        <dc:title />
      </cc:Work>
    </rdf:RDF>
  </metadata>
  <g
     id="g10452"
     transform="matrix(1.0047077,0,0,1.0047077,-570.49678,-1.7001736)"
     style="fill:#7f7f7f;fill-opacity:1">
    <g
       id="path5924-4"
       style="fill:#7f7f7f;fill-opacity:1"
       transform="matrix(13.234603,0,0,13.234603,-124.44511,-3057.1293)">
      <g
         id="path9017"
         style="fill:#7f7f7f;fill-opacity:1">
        <path
           id="path9384"
           style="color:#000000;fill:#7f7f7f;fill-opacity:1;stroke-linecap:round;stroke-linejoin:round;-inkscape-stroke:none;paint-order:stroke fill markers"
           d="m 74.869117,248.29681 c -4.041257,0 -7.726235,0.84383 -10.628949,2.40241 -2.902713,1.55858 -5.322223,4.09732 -5.322223,7.44719 0,3.34988 2.41951,5.88875 5.322223,7.44733 2.902714,1.55858 6.587692,2.40241 10.628949,2.40241 4.041257,0 7.728153,-0.84383 10.630867,-2.40241 2.902714,-1.55858 5.320305,-4.09745 5.320304,-7.44733 0,-3.34987 -2.41759,-5.88861 -5.320304,-7.44719 -2.902714,-1.55858 -6.58961,-2.40241 -10.630867,-2.40241 z m 1.47e-4,2.77372 a 13.17716,7.0753145 0 0 1 13.177164,7.07529 13.17716,7.0753145 0 0 1 -13.177164,7.07529 13.17716,7.0753145 0 0 1 -13.177163,-7.07529 13.17716,7.0753145 0 0 1 13.177163,-7.07529 z" />
      </g>
    </g>
    <path
       d="m 882.52038,276.27527 -78.4993,104.66565 v 24.15361 h 76.4865 v 32.20482 h 28.1792 v -32.20482 h 10.9266 l 9.2014,-24.15361 h -22.1408 V 276.27527 Z m -2.0128,42.26882 v 62.39683 h -46.2945 z"
       id="path9389"
       style="font-weight:bold;font-size:287.543px;font-family:'Russian Road Sign';-inkscape-font-specification:'Russian Road Sign Bold';stroke-width:148.236;stroke-linecap:round;stroke-linejoin:round;paint-order:stroke fill markers;fill:#7f7f7f;fill-opacity:1" />
  </g>
  <path
     d="M 45,20 C 31.15,20 20,31.15 20,45 v 810 c 0,13.85 11.15,25 25,25 h 510 c 13.85,0 25,-11.15 25,-25 V 45 C 580,31.15 568.85,20 555,20 Z m 0,10 h 510 c 7.78,0 14.158,5.87 14.938,13.438 L 30,647.594 V 45 C 30,36.69 36.69,30 45,30 Z M 570,64.906 V 90.219 L 30,694.468 V 669.155 L 570,64.905 Z m 0,46.875 v 25.313 L 30,741.344 v -25.313 z m 0,46.875 v 25.313 L 30,788.218 v -25.313 l 540,-604.25 z m 0,46.875 v 25.313 L 30,835.094 v -25.313 z m 0,46.875 V 855 c 0,8.31 -6.69,15 -15,15 H 45 c -7.78,0 -14.158,-5.87 -14.938,-13.437 z"
     style="font-weight:bold;font-size:287.543px;font-family:'Russian Road Sign';-inkscape-font-specification:'Russian Road Sign Bold';fill:#000000;stroke-width:148.236;stroke-linecap:round;stroke-linejoin:round;marker:none;paint-order:stroke fill markers"
     overflow="visible"
     color="#000000"
     id="path11518" />
</svg>
