<?xml version="1.0" encoding="UTF-8" standalone="no"?>
<!-- Created with Inkscape (http://www.inkscape.org/) -->

<svg
   width="600"
   height="900"
   id="svg2"
   version="1.1"
   inkscape:version="1.2.2 (b0a8486541, 2022-12-01)"
   sodipodi:docname="RU_road_sign_5.39.svg"
   xml:space="preserve"
   xmlns:inkscape="http://www.inkscape.org/namespaces/inkscape"
   xmlns:sodipodi="http://sodipodi.sourceforge.net/DTD/sodipodi-0.dtd"
   xmlns="http://www.w3.org/2000/svg"
   xmlns:svg="http://www.w3.org/2000/svg"
   xmlns:rdf="http://www.w3.org/1999/02/22-rdf-syntax-ns#"
   xmlns:cc="http://creativecommons.org/ns#"
   xmlns:dc="http://purl.org/dc/elements/1.1/"><title
     id="title3004">5.39 Велосипедная зона</title><defs
     id="defs4" /><sodipodi:namedview
     id="base"
     pagecolor="#ffffff"
     bordercolor="#666666"
     borderopacity="1.0"
     inkscape:pageopacity="0.0"
     inkscape:pageshadow="2"
     inkscape:zoom="0.125"
     inkscape:cx="1392"
     inkscape:cy="-823.99998"
     inkscape:document-units="px"
     inkscape:current-layer="layer1"
     showgrid="false"
     inkscape:window-width="1680"
     inkscape:window-height="979"
     inkscape:window-x="-8"
     inkscape:window-y="-8"
     inkscape:window-maximized="1"
     inkscape:showpageshadow="2"
     inkscape:pagecheckerboard="0"
     inkscape:deskcolor="#d1d1d1"
     showguides="true" /><metadata
     id="metadata7"><rdf:RDF><cc:Work
         rdf:about=""><dc:format>image/svg+xml</dc:format><dc:type
           rdf:resource="http://purl.org/dc/dcmitype/StillImage" /><dc:title>5.39 Велосипедная зона</dc:title><cc:license
           rdf:resource="http://creativecommons.org/licenses/by-sa/3.0/" /><dc:description>ГОСТ Р 52290-2004
Размеры и пропорции по типоразмеру I</dc:description></cc:Work><cc:License
         rdf:about="http://creativecommons.org/licenses/by-sa/3.0/"><cc:permits
           rdf:resource="http://creativecommons.org/ns#Reproduction" /><cc:permits
           rdf:resource="http://creativecommons.org/ns#Distribution" /><cc:requires
           rdf:resource="http://creativecommons.org/ns#Notice" /><cc:requires
           rdf:resource="http://creativecommons.org/ns#Attribution" /><cc:permits
           rdf:resource="http://creativecommons.org/ns#DerivativeWorks" /><cc:requires
           rdf:resource="http://creativecommons.org/ns#ShareAlike" /></cc:License></rdf:RDF></metadata><g
     inkscape:label="Layer 1"
     inkscape:groupmode="layer"
     id="layer1"
     transform="translate(0,-152.36218)"><rect
       style="color:#000000;fill:#ffffff;fill-opacity:1;fill-rule:nonzero;stroke:none;stroke-width:4;marker:none;visibility:visible;display:inline;overflow:visible;enable-background:accumulate;opacity:1"
       id="rect3256"
       width="600"
       height="900"
       x="0"
       y="152.36218"
       rx="45"
       ry="45" /><rect
       ry="44"
       rx="44"
       y="153.36218"
       x="1"
       height="898"
       width="598"
       id="rect3041"
       style="color:#000000;fill:none;stroke:#000000;stroke-width:2;stroke-miterlimit:4;stroke-opacity:1;stroke-dasharray:none;marker:none;visibility:visible;display:inline;overflow:visible;enable-background:accumulate;opacity:1" /><path
       id="path9094"
       style="opacity:1;fill:#0d69e1;fill-opacity:1;stroke:none"
       d="M 411.65625 171.98718 L 412.5 172.36218 L 411.65625 508.23718 L 556.20117 508.5907 L 556.20117 508.5653 L 581.15625 508.5653 L 581.15625 197.41101 C 581.15625 183.56907 570.01851 172.42586 556.17969 172.41296 L 556.17969 172.37195 C 556.17969 172.37195 413.13063 171.63357 411.65625 171.98718 z M 45 172.36218 C 31.150014 172.36218 20 183.51219 20 197.36218 L 20 1007.3622 C 20 1021.2122 31.150014 1032.3622 45 1032.3622 L 555 1032.3622 C 568.84999 1032.3622 580 1021.2122 580 1007.3622 L 580 527.36218 L 393.75 527.36218 L 393.75 172.36218 L 45 172.36218 z M 452.83984 245.64538 A 219.39243 219.39243 0 0 0 502.20312 287.5282 A 109.69621 109.69621 0 0 1 485.25 294.50866 A 104.71002 104.71002 0 0 0 537.10547 344.37195 A 49.861915 49.861915 0 0 1 502.20312 354.3446 A 114.68241 114.68241 0 0 0 567.02344 394.23327 A 94.737638 94.737638 0 0 1 507.18945 413.18054 L 507.18945 439.10827 L 477.27148 439.10827 L 477.27148 414.17859 A 59.834298 59.834298 0 0 1 427.41016 419.16491 A 96.732113 96.732113 0 0 0 467.29883 359.33093 A 104.71002 104.71002 0 0 1 432.89453 369.30163 A 74.792873 74.792873 0 0 0 460.31836 299.49499 A 89.751447 89.751447 0 0 1 443.36523 305.97741 A 94.737638 94.737638 0 0 0 452.83984 245.64538 z M 284.81445 250.51648 C 289.95525 250.51648 298.52734 253.52236 298.52734 263.15124 C 298.52734 274.21503 280.62504 283.04773 275 283.04773 C 267.07761 283.04773 263.44336 273.94171 263.44336 268.30749 C 263.44336 254.45018 280.46186 250.51648 284.81445 250.51648 z M 184.19922 282.37195 C 184.36714 282.36595 184.53843 282.36595 184.70703 282.37195 C 185.93322 282.40375 187.17749 282.7292 188.31445 283.38562 C 191.95268 285.48626 193.18449 290.14427 191.08398 293.7821 L 168.51758 332.86999 C 167.26329 335.04259 167.26329 337.71882 168.51758 339.89148 L 184.99805 368.4071 C 186.93701 371.76577 185.78223 376.06365 182.42383 378.0028 L 156.6582 392.88562 L 132.70703 434.37195 C 130.28333 438.57025 124.90894 440.01431 120.71094 437.5907 C 116.51292 435.16707 115.0685 429.79294 117.49219 425.5946 L 144.01953 379.64148 C 144.63588 378.57419 145.52632 377.68342 146.59375 377.06726 L 156.85352 371.1571 L 144.87695 350.42468 C 143.62265 348.25202 143.62265 345.57578 144.87695 343.4032 L 177.91797 286.17663 C 179.27185 283.83198 181.68048 282.47419 184.19922 282.37195 z M 288.23047 285.48523 C 289.84615 285.48519 291.45849 285.89158 292.90625 286.72741 L 322.7168 303.95593 C 325.61223 305.62765 327.39258 308.70239 327.39258 312.04577 L 327.39258 344.80945 C 327.39258 348.68575 324.25527 351.82116 320.37891 351.82116 C 316.5026 351.82116 313.36523 348.68575 313.36523 344.80945 L 313.36523 314.7489 L 298.85742 306.37585 L 298.85742 345.63757 C 298.85742 346.8785 298.35998 348.0589 297.48242 348.9364 L 259.43164 387.00476 L 248.86914 429.30163 C 247.67834 434.06499 242.83965 436.97491 238.07617 435.78405 C 233.31272 434.59317 230.41859 429.75444 231.60938 424.99109 L 244.60742 372.99499 C 244.81953 372.14422 245.26965 371.38138 245.90039 370.77234 L 269.14648 347.51062 L 269.14648 297.75476 C 269.14648 296.08304 270.03662 294.52809 271.48438 293.69226 L 283.55469 286.72741 C 285.00244 285.89158 286.61479 285.48523 288.23047 285.48523 z M 144.29297 296.39538 C 152.04587 296.39538 155.76172 302.3416 155.76172 309.73718 C 155.76172 313.59148 151.23441 333.4364 140.02148 333.4364 C 132.70992 333.4364 125.09961 326.42939 125.09961 317.28601 C 125.09961 306.96537 136.32199 296.39538 144.29297 296.39538 z M 264.03906 317.98132 L 264.03906 337.8446 L 247.6582 354.20984 C 246.38802 355.47988 244.63928 356.26648 242.70117 356.26648 C 238.82482 356.26648 235.6875 353.12918 235.6875 349.2528 C 235.6875 347.31466 236.47408 345.56404 237.74414 344.29382 L 264.03906 317.98132 z M 112.08984 340.51648 C 114.78746 340.44638 117.43477 341.81781 118.87891 344.31921 L 127.77148 359.72741 L 140.56641 352.33484 L 148.17383 365.50085 L 128.2793 376.98913 C 124.92088 378.92823 120.62257 377.77302 118.68359 374.41491 L 105.69336 351.92663 C 103.59279 348.28824 104.84415 343.63078 108.48242 341.53015 C 109.61937 340.87367 110.86365 340.54837 112.08984 340.51648 z M 296.15625 356.89538 L 333.42773 421.45788 C 334.71986 423.00162 335.5 424.99241 335.5 427.16296 C 335.5 432.07297 331.52324 436.04968 326.61328 436.04968 C 323.29894 436.04968 320.40002 434.22881 318.87109 431.53991 L 318.77148 431.60632 L 283.14062 369.91101 L 296.15625 356.89538 z M 184.16016 383.07507 L 196.03906 403.65124 L 211.70117 403.65124 C 216.54862 403.65124 220.47852 407.58133 220.47852 412.42859 C 220.47852 417.27646 216.54862 421.20593 211.70117 421.20593 L 189.95312 421.20593 C 187.44457 421.20593 185.12148 419.86882 183.86719 417.69616 L 168.9668 391.85241 L 184.16016 383.07507 z M 168.99609 510.29773 L 224.15234 510.29773 L 279.30859 510.29773 C 283.67139 510.29773 288.32371 513.61076 289.74609 517.73523 L 295.02734 533.04773 L 305.96484 564.73523 C 305.97384 564.76423 305.95484 564.79988 305.96484 564.82898 L 308.52734 572.17273 C 314.75984 572.17273 319.77734 577.19023 319.77734 583.42273 L 319.77734 628.42273 C 319.77734 634.65521 314.75984 639.67273 308.52734 639.67273 L 139.77734 639.67273 C 133.54486 639.67273 128.52734 634.65521 128.52734 628.42273 L 128.52734 583.42273 C 128.52734 577.19023 133.54486 572.17273 139.77734 572.17273 L 142.33984 564.82898 C 142.34984 564.79998 142.32984 564.76443 142.33984 564.73523 L 153.27734 533.04773 L 158.55859 517.73523 C 159.98079 513.61081 164.63341 510.29773 168.99609 510.29773 z M 172.40234 521.54773 C 170.22106 521.54773 167.89469 523.20426 167.18359 525.26648 L 151.02734 572.17273 L 224.15234 572.17273 L 297.27734 572.17273 L 281.08984 525.26648 C 280.37874 523.20426 278.08364 521.54773 275.90234 521.54773 L 224.15234 521.54773 L 172.40234 521.54773 z M 291.65234 582.86023 C 282.33256 582.86023 274.77734 590.41544 274.77734 599.73523 C 274.77734 609.05502 282.33256 616.61023 291.65234 616.61023 C 300.97212 616.61023 308.52734 609.05502 308.52734 599.73523 C 308.52734 590.41544 300.97212 582.86023 291.65234 582.86023 z M 156.65234 583.42273 C 147.33256 583.42273 139.77734 590.97794 139.77734 600.29773 C 139.77734 609.61752 147.33256 617.17273 156.65234 617.17273 C 165.97212 617.17273 173.52734 609.61752 173.52734 600.29773 C 173.52734 590.97794 165.97212 583.42273 156.65234 583.42273 z M 139.77734 645.29773 L 173.52734 645.29773 L 173.52734 667.79773 C 173.52734 677.11751 165.97212 684.67273 156.65234 684.67273 C 147.33256 684.67273 139.77734 677.11751 139.77734 667.79773 L 139.77734 645.29773 z M 274.77734 645.29773 L 308.52734 645.29773 L 308.52734 667.79773 C 308.52734 677.11751 300.97212 684.67273 291.65234 684.67273 C 282.33256 684.67273 274.77734 677.11751 274.77734 667.79773 L 274.77734 645.29773 z M 232.77734 732.73718 L 266.27344 732.73718 C 270.11732 732.73718 273.23437 735.85221 273.23438 739.69616 C 273.23438 743.54014 270.11732 746.65515 266.27344 746.65515 L 232.77734 746.65515 C 226.53096 746.65515 221.46094 751.70366 221.46094 757.95007 C 221.46094 762.03462 224.05208 765.67505 227.91406 767.00476 C 237.39354 770.26886 243.75977 779.20364 243.75977 789.22937 C 243.75977 791.30732 243.47945 793.37672 242.93945 795.36999 L 362.45312 795.36999 L 366.54688 785.78601 L 335.86719 785.78601 C 330.10119 785.78601 325.44141 781.12618 325.44141 775.36023 C 325.44141 769.59435 330.10119 764.90905 335.86719 764.90905 L 383.7168 764.90905 C 389.48278 764.90905 394.16797 769.59435 394.16797 775.36023 C 394.16797 781.12618 386.32108 790.93025 383.7168 785.78601 L 379.81445 785.78601 L 373.5293 800.50085 L 399.70508 837.8739 C 408.81966 833.49182 419.0404 831.03406 429.83008 831.03405 C 468.2695 831.03405 499.42383 862.18828 499.42383 900.6278 C 499.42383 939.06734 468.2695 970.24499 429.83008 970.24499 C 394.63744 970.24499 365.5501 944.12285 360.88672 910.21179 L 320.0957 910.21179 L 224.01367 836.74109 L 218.49805 848.58874 C 232.84831 861.33817 241.9043 879.92214 241.9043 900.6278 C 241.9043 939.06734 210.74997 970.24499 172.31055 970.24499 C 133.87103 970.24499 102.71875 939.06734 102.71875 900.6278 C 102.71875 862.18828 133.87103 831.03406 172.31055 831.03405 C 184.94931 831.03405 196.79544 834.41692 207.01172 840.30554 L 227.96289 795.36999 L 228.94922 793.27624 C 229.53982 792.00978 229.83984 790.62689 229.83984 789.22937 C 229.83984 785.14481 227.2488 781.50642 223.38672 780.17663 C 213.90714 776.91261 207.54102 767.97579 207.54102 757.95007 C 207.54102 744.01571 218.84298 732.73718 232.77734 732.73718 z M 237.93164 811.02429 L 230.82812 822.17273 L 321.4668 891.47741 L 355.80664 811.02429 L 237.93164 811.02429 z M 368.64062 820.82507 L 337.19141 894.55945 L 360.47852 894.55945 C 362.1707 875.0286 371.96152 857.81861 386.4375 846.2528 L 368.64062 820.82507 z M 170.76953 841.48523 C 138.80169 842.29519 113.14453 868.46475 113.14453 900.6278 C 113.14453 933.30145 139.63691 959.79382 172.31055 959.79382 C 204.98407 959.79382 231.47852 933.30145 231.47852 900.6278 C 231.47852 884.15309 224.74068 869.26078 213.875 858.53405 L 200.55859 887.0946 C 198.37041 891.78729 194.78281 895.67966 190.29883 898.26843 L 175.7793 906.67273 C 172.4503 908.59462 168.18958 907.44891 166.26758 904.11999 C 164.34558 900.79109 165.49133 896.53026 168.82031 894.60827 L 183.33984 886.22741 C 185.35004 885.06693 186.95845 883.29783 187.93945 881.19421 L 202.58008 849.81726 C 193.7219 844.52952 183.37643 841.48523 172.31055 841.48523 C 171.80005 841.48523 171.27693 841.47213 170.76953 841.48523 z M 429.83008 841.48523 C 421.268 841.48523 413.14591 843.31826 405.79883 846.5907 L 439.80078 895.13757 C 442.83248 899.46709 441.76905 905.4458 437.43945 908.47741 C 435.83065 909.60393 433.91322 910.21179 431.94922 910.21179 L 371.45898 910.21179 C 376.03778 938.32907 400.41874 959.79382 429.83008 959.79382 C 462.50372 959.79382 488.99609 933.30145 488.99609 900.6278 C 488.99609 867.95424 462.50372 841.48523 429.83008 841.48523 z M 392.43359 854.80163 C 380.63733 864.44098 372.61496 878.57018 370.97656 894.55945 L 420.27148 894.55945 L 392.43359 854.80163 z " /></g></svg>
