<?xml version="1.0" encoding="UTF-8"?>
<svg xmlns="http://www.w3.org/2000/svg" width="600" height="900" viewBox="0 0 600 900">
<title>5.42 Конец зоны с ограничением остановки</title>
<rect width="600" height="900" rx="45" ry="45" style="fill: #fff;"/>
<rect x="1" y="1" width="598" height="898" rx="44" ry="44" style="fill: none; stroke: #000; stroke-miterlimit: 10; stroke-width: 2px;"/>
<g>
  <path d="M163.732,103.779h6.568c1.006,0,2.011-.079,3.001-.236.99-.157,1.933-.377,2.829-.675.88-.283,1.744-.629,2.561-1.037.817-.409,1.571-.88,2.262-1.399.707-.534,1.32-1.084,1.87-1.665.534-.582,1.006-1.21,1.414-1.886.409-.676.723-1.367.943-2.074.204-.691.33-1.43.377-2.2v-.471c0-.817-.078-1.587-.235-2.326-.189-.864-.472-1.665-.849-2.451-.361-.77-.817-1.493-1.336-2.153-.518-.659-1.099-1.272-1.744-1.822-.644-.566-1.32-1.069-2.042-1.493-.707-.424-1.446-.786-2.216-1.068-.754-.299-1.524-.535-2.325-.707-.786-.173-1.572-.283-2.357-.315-.534-.047-1.084-.063-1.619-.063-1.822,0-3.598.158-5.295.472-2.262.377-4.368.99-6.316,1.791-1.964.817-3.756,1.854-5.358,3.095-1.619,1.242-3.017,2.656-4.227,4.243l-7.731-11.753c1.823-1.791,3.881-3.363,6.16-4.714,2.294-1.351,4.792-2.498,7.51-3.41,2.719-.911,5.625-1.602,8.705-2.058,3.08-.471,6.301-.707,9.632-.707,1.98,0,3.881.173,5.704.503,1.822.33,3.551.801,5.185,1.43,1.618.612,3.158,1.367,4.588,2.231,1.446.88,2.75,1.854,3.928,2.938,1.179,1.084,2.247,2.278,3.174,3.551.927,1.289,1.713,2.64,2.357,4.07.644,1.445,1.132,2.938,1.462,4.494.329,1.539.487,3.142.487,4.761,0,1.602-.126,3.095-.378,4.493-.251,1.383-.612,2.687-1.084,3.897-.455,1.194-1.005,2.31-1.618,3.347-.629,1.021-1.32,1.948-2.074,2.781-.754.849-1.54,1.571-2.389,2.216-.832.644-1.681,1.178-2.561,1.602-.864.425-1.744.754-2.608.99-.88.236-1.713.346-2.53.346.817,0,1.681.094,2.609.298.942.189,1.885.503,2.859.927.974.425,1.933.975,2.907,1.635.974.66,1.901,1.414,2.797,2.294.896.88,1.713,1.885,2.467,3.032.754,1.132,1.414,2.404,1.98,3.771.565,1.383,1.005,2.891,1.335,4.51.33,1.634.503,3.394.503,5.295,0,2.137-.251,4.164-.723,6.065-.487,1.901-1.178,3.661-2.042,5.295-.88,1.619-1.917,3.111-3.111,4.478-1.21,1.352-2.546,2.593-4.023,3.693-1.477,1.1-3.032,2.074-4.682,2.907-1.65.833-3.363,1.54-5.123,2.105-1.76.55-3.566.975-5.405,1.242-1.854.267-3.661.408-5.452.408-1.587,0-3.19-.063-4.793-.173-1.618-.11-3.221-.298-4.808-.55-1.587-.251-3.174-.565-4.745-.927-1.571-.377-3.095-.785-4.588-1.257-1.493-.471-2.938-.974-4.305-1.54-1.383-.565-2.703-1.178-3.96-1.869-1.257-.676-2.451-1.399-3.551-2.153-1.116-.754-2.106-1.556-3.001-2.42l8.328-11.973c1.037,1.43,2.388,2.75,4.006,3.944,1.634,1.21,3.52,2.231,5.673,3.095,2.152.849,4.541,1.525,7.165,1.996,2.624.487,5.483.738,8.579.738.817,0,1.665-.078,2.53-.235.879-.157,1.759-.393,2.624-.692.88-.314,1.728-.691,2.561-1.115.833-.424,1.634-.927,2.388-1.509.754-.581,1.446-1.225,2.058-1.917.629-.707,1.163-1.445,1.635-2.247.471-.801.832-1.634,1.084-2.529.251-.896.377-1.839.377-2.86,0-1.037-.126-2.058-.362-3.048-.219-.99-.565-1.933-1.005-2.86-.456-.911-.99-1.76-1.634-2.577s-1.352-1.571-2.121-2.247c-.786-.675-1.635-1.304-2.562-1.854-.927-.566-1.917-1.037-2.969-1.43-1.053-.393-2.137-.691-3.253-.911-1.131-.204-2.294-.314-3.504-.314h-6.568v-13.089Z" style="fill-rule: evenodd;"/>
  <path d="M286.35,103.28c-.47-3-1.13-5.88-2.0099-8.61-.86-2.74-1.95-5.33-3.22-7.77-1.29-2.45-2.72-4.71-4.29-6.78-1.57-2.08-3.29-3.93-5.14-5.58-1.87-1.65-3.85-3.07-5.94-4.23-2.11-1.16-4.27-2.06-6.55-2.67-2.26-.63-4.6-.94-7.01-.94-2.4,0-4.76.31-7.04.94-2.29.61-4.48,1.51-6.55,2.67-2.08,1.16-4.06,2.58-5.94,4.23-1.89,1.65-3.61,3.5-5.18,5.58-1.58,2.07-2.99,4.33-4.25,6.78-1.25,2.44-2.34,5.03-3.22,7.77-.89,2.73-1.57,5.61-2.04,8.61-.47,3.0099-.71,6.08-.71,9.22,0,3.19.24,6.27.71,9.25.47,2.99,1.15,5.85,2.04,8.58.88,2.75,1.97,5.33,3.22,7.78,1.26,2.45,2.67,4.7,4.25,6.77,1.57,2.09,3.29,3.95,5.18,5.6,1.88,1.65,3.86,3.04,5.94,4.22,2.07,1.17,4.26,2.05,6.55,2.68,2.28.61,4.64.92,7.04.92,2.41,0,4.75-.31,7.01-.92,2.28-.63,4.44-1.51,6.55-2.68,2.09-1.18,4.07-2.57,5.94-4.22,1.85-1.65,3.57-3.51,5.14-5.6,1.57-2.07,3-4.32,4.29-6.77,1.27-2.45,2.36-5.03,3.22-7.78.8799-2.73,1.54-5.59,2.0099-8.58.46-2.98.69-6.06.69-9.25,0-3.14-.23-6.21-.69-9.22ZM271.39,119.08c-.27,2.14-.64,4.18-1.13,6.15-.49,1.95-1.08,3.8-1.81,5.54-.72,1.75-1.52,3.37-2.42,4.87-.89,1.5-1.85,2.83-2.9,4.01-1.06,1.18-2.16,2.19-3.32,3-1.16.8199-2.39,1.45-3.66,1.89-1.29.45-2.61.67-3.96.67-1.37,0-2.69-.22-3.96-.67-1.29-.44-2.51-1.07-3.69-1.89-1.19-.81-2.31-1.82-3.35-3-1.05-1.1801-2.03-2.51-2.9-4.01-.9-1.5-1.7-3.12-2.39-4.87-.71-1.74-1.31-3.59-1.81-5.54-.5-1.97-.88-4.01-1.13-6.15-.25-2.13-.38-4.33-.38-6.58s.13-4.43.38-6.57.63-4.18,1.13-6.14c.5-1.97,1.1-3.82,1.81-5.56.69-1.75,1.49-3.37,2.39-4.86.87-1.49,1.85-2.83,2.9-4.02,1.04-1.18,2.16-2.17,3.35-2.99,1.18-.82,2.4-1.44,3.69-1.9,1.27-.44,2.59-.66,3.96-.66,1.35,0,2.67.22,3.96.66,1.27.46,2.5,1.08,3.66,1.9s2.26,1.81,3.32,2.99c1.05,1.19,2.01,2.53,2.9,4.02.9,1.49,1.7,3.11,2.42,4.86.73,1.74,1.32,3.59,1.81,5.56.49,1.96.86,4,1.13,6.14.27,2.14.41,4.32.41,6.57s-.14,4.45-.41,6.58Z" style="fill-rule: evenodd;"/>
  <polygon points="321.049 103.779 353.81 103.779 353.81 68.85 369.051 68.85 369.051 156.15 353.81 156.15 353.81 116.868 321.049 116.868 321.049 156.15 305.792 156.15 305.792 68.85 321.049 68.85 321.049 103.779" style="fill-rule: evenodd;"/>
  <path d="M432.9,68.85h-17.41l-28.39,87.3h17.52l5-17.39h29.16l5.12,17.39h17.4l-28.4-87.3ZM413.47,125.54l10.7-37.02,10.71,37.02h-21.41Z" style="fill-rule: evenodd;"/>
</g>
<g>
  <path d="M260.995,468l-95.876-95.876c-40.804,57.405-40.804,134.346,0,191.751l95.876-95.875ZM300,507.004l-95.876,95.876c57.405,40.804,134.346,40.804,191.751,0l-95.875-95.876ZM339.004,468l95.876,95.875c40.804-57.405,40.804-134.346,0-191.751l-95.876,95.876ZM300,428.995l95.875-95.876c-57.405-40.804-134.346-40.804-191.751,0l95.876,95.876Z" style="fill: #7f7f7f; fill-rule: evenodd;"/>
  <path d="M300,254.25c-118.051,0-213.75,95.699-213.75,213.75s95.699,213.75,213.75,213.75,213.75-95.7,213.75-213.75-95.7-213.75-213.75-213.75ZM270.746,468l-106.383-106.383c-48.99,62.461-48.99,150.304,0,212.765l106.383-106.382ZM300,497.253l-106.383,106.383c62.461,48.99,150.304,48.99,212.765,0l-106.382-106.383ZM329.253,468l106.383,106.382c48.99-62.461,48.99-150.304,0-212.765l-106.383,106.383ZM300,438.746l106.382-106.383c-62.461-48.99-150.304-48.99-212.765,0l106.383,106.383Z" style="fill: #7f7f7f; fill-rule: evenodd;"/>
</g>
<path d="M20,45c0-13.808,11.192-25,25-25h510c13.807,0,25,11.192,25,25v810c0,13.807-11.193,25-25,25H45c-13.808,0-25-11.193-25-25V45ZM30,45c0-8.285,6.715-15,15-15h510c8.284,0,15,6.715,15,15v-1L30,644.5V45ZM570,255.5v599.5c0,8.284-6.716,15-15,15H45c-8.285,0-15-6.716-15-15v1L570,255.5ZM570,67.5v23.5L30,691.5v-23.5L570,67.5ZM570,114.5v23.5L30,738.5v-23.5L570,114.5ZM570,161.5v23.5L30,785.5v-23.5L570,161.5ZM570,208.5v23.5L30,832.5v-23.5L570,208.5Z" style="fill-rule: evenodd;"/>
</svg>